<svg width="310" height="167.51370026491844" viewBox="0 0 310 167.51370026491844" class="css-1j8o68f"><defs id="SvgjsDefs8173"><linearGradient id="SvgjsLinearGradient8178"><stop id="SvgjsStop8179" stop-color="#2d388a" offset="0"></stop><stop id="SvgjsStop8180" stop-color="#00aeef" offset="1"></stop></linearGradient><linearGradient id="SvgjsLinearGradient8181"><stop id="SvgjsStop8182" stop-color="#2d388a" offset="0"></stop><stop id="SvgjsStop8183" stop-color="#00aeef" offset="1"></stop></linearGradient></defs><g id="SvgjsG8174" featurekey="nameFeature-0" transform="matrix(4.577410714607584,0,0,4.577410714607584,-6.973682883872212,-49.26208576404035)" fill="url(#SvgjsLinearGradient8178)"><path d="M29.805 27.344 l-2.9688 12.734 l-9.7852 0 l2.7734 -11.953 l-5.6641 0 l-2.793 11.953 l-9.8438 0 l2.9492 -12.734 l-1.9727 0 l3.7695 -16.484 l9.8438 0 l-2.2461 9.9023 l5.6445 0 l2.2852 -9.9023 l9.8047 0 l-3.8086 16.484 l2.0117 0 z M63.486296875 26.719 l-6.2891 13.359 l-10.039 0 l-0.3125 -10.918 c-1.7383 3.5742 -3.5547 7.2656 -5.1953 10.918 l-10.059 0 l-0.19531 -13.359 l-1.7773 0 l-0.29297 -15.957 l10.195 0 l-0.27344 11.543 c1.7773 -3.8086 3.6328 -7.7148 5.4688 -11.543 l9.3945 0 l0 11.543 c1.7578 -3.8086 3.418 -7.7148 5.1367 -11.543 l10 0 l-7.5391 15.957 l1.7773 0 z"></path></g><g id="SvgjsG8175" featurekey="sloganFeature-0" transform="matrix(0.9951177755391492,0,0,0.9951177755391492,-1.8708216505230753,147.41232043981302)" fill="url(#SvgjsLinearGradient8181)"><path d="M7.74 12 l0 -5.02 c0 -0.1 0.08 -0.18 0.18 -0.18 l2.28 0 c0.1 0 0.18 0.08 0.18 0.18 l0 12.84 c0 0.1 -0.08 0.18 -0.18 0.18 l-2.28 0 c-0.1 0 -0.18 -0.08 -0.18 -0.18 l0 -5.32 l-3.24 0 l0 5.32 c0 0.1 -0.08 0.18 -0.18 0.18 l-2.28 0 c-0.1 0 -0.16 -0.08 -0.16 -0.18 l0 -12.84 c0 -0.1 0.06 -0.18 0.16 -0.18 l2.28 0 c0.1 0 0.18 0.08 0.18 0.18 l0 5.02 l3.24 0 z M3.04 18.76 c0 0.16 0.26 0.14 0.26 0 l0 -5.36 l5.62 0 l0 5.36 c0 0.14 0.22 0.16 0.22 0 l0 -10.76 c0 -0.14 -0.22 -0.18 -0.22 0 l0 5.12 l-5.62 0 l0 -5.12 c0 -0.14 -0.26 -0.14 -0.26 0 l0 10.76 z M19.9905 6.92 c0.02 -0.06 0.06 -0.12 0.14 -0.12 l2.48 0 c0.08 0 0.12 0.06 0.14 0.12 l3.46 12.86 c0.02 0.12 -0.06 0.22 -0.18 0.22 l-2.28 0 c-0.06 0 -0.12 -0.04 -0.14 -0.12 l-0.78 -2.8 l-2.92 0 l-0.76 2.8 c-0.02 0.08 -0.06 0.12 -0.14 0.12 l-2.3 0 c-0.12 0 -0.2 -0.1 -0.18 -0.22 z M20.5505 14.6 l1.66 0 l-0.86 -3.02 z M23.630499999999998 15.780000000000001 l0.92 3 c0.04 0.12 0.26 0.1 0.2 -0.06 l-3.2 -10.64 c-0.06 -0.26 -0.4 -0.28 -0.46 0 l-3.1 10.64 c-0.06 0.14 0.16 0.2 0.22 0.08 l0.88 -3.02 l4.54 0 z M19.1505 15.52 l2.18 -7.36 l2.22 7.36 l-4.4 0 z M39.881 14.780000000000001 c-0.28 0.58 -0.68 1.02 -1.24 1.28 l1.68 3.7 c0.06 0.12 -0.02 0.24 -0.14 0.24 l-2.46 0 c-0.08 0 -0.12 -0.04 -0.14 -0.1 l-1.56 -3.4 l-1.02 0 l0 3.32 c0 0.1 -0.08 0.18 -0.18 0.18 l-2.3 0 c-0.08 0 -0.14 -0.08 -0.14 -0.18 l0 -12.84 c0 -0.1 0.06 -0.18 0.14 -0.18 l4.16 0 c2.22 0 3.56 1.26 3.56 3.6 l0 2.52 c0 0.7 -0.12 1.36 -0.36 1.86 z M37.620999999999995 12.3 l0 -1.3 c0 -1.4 -0.52 -1.54 -2.04 -1.54 l-0.58 0 l0 4.42 l0.58 0 c1.26 0 2 -0.02 2.04 -1.58 z M33.840999999999994 18.78 l0 -3.42 l2.88 0 l1.68 3.46 c0.04 0.1 0.28 0.06 0.22 -0.12 l-1.68 -3.4 c1.56 -0.22 2.1 -1.04 2.1 -2.52 l0 -2.5 c0 -2.2 -2 -2.38 -2.62 -2.38 l-2.7 0 c-0.04 0 -0.12 0.06 -0.12 0.12 l0 10.76 c0 0.14 0.24 0.14 0.24 0 z M38.801 10.28 l0 2.5 c0 2.04 -1.3 2.32 -2.56 2.32 l-2.4 0 l0 -6.94 l2.58 0 c2.16 0 2.38 1.46 2.38 2.12 z M52.311499999999995 6.800000000000001 c1.36 0 2.38 0.38 3.06 1.12 c0.6 0.66 0.9 1.64 0.9 2.84 l0 5.3 c0 2.42 -1.4 3.94 -3.96 3.94 l-5 0 c-0.1 0 -0.16 -0.08 -0.16 -0.18 l0 -12.84 c0 -0.1 0.06 -0.18 0.16 -0.18 l5 0 z M53.6515 15.46 l0 -4.1 c0 -1.26 -0.66 -2.06 -2.06 -2.06 l-1.8 0 l0 8.2 l1.8 0 c1.2 0 2.06 -0.78 2.06 -2.04 z M48.3715 8.02 l0 10.76 c0 0.08 0.08 0.1 0.12 0.1 l3.26 0 c2.3 0 3.34 -1.38 3.34 -2.66 l0 -5.12 c0 -2.12 -1.12 -3.2 -3.4 -3.2 l-3.2 0 c-0.04 0 -0.12 0.02 -0.12 0.12 z M54.851499999999994 11.1 l0 5.12 c0 1.6 -1.6 2.44 -3.1 2.44 l-3.14 0 l0 -10.5 l3.08 0 c2.1 0 3.16 0.94 3.16 2.94 z M88.1925 6.800000000000001 c0.12 0 0.2 0.1 0.16 0.22 l-3.44 12.86 c-0.02 0.08 -0.1 0.12 -0.18 0.12 l-2.2 0 c-0.08 0 -0.14 -0.04 -0.18 -0.12 l-1.36 -5.06 l-1.84 5.08 c-0.02 0.06 -0.06 0.1 -0.14 0.1 l-2.12 0 c-0.08 0 -0.14 -0.04 -0.16 -0.12 l-3.42 -12.88 c-0.02 -0.1 0.04 -0.2 0.18 -0.2 l2.3 0 c0.06 0 0.12 0.06 0.14 0.12 l2.22 8.48 l1.66 -5.02 l-0.92 -3.36 c-0.04 -0.12 0.06 -0.22 0.16 -0.22 l2.48 0 c0.08 0 0.12 0.02 0.16 0.12 l1.84 8.16 l2.2 -8.16 c0.02 -0.06 0.08 -0.12 0.16 -0.12 l2.3 0 z M81.1525 10.58 l-3.02 8.04 l-3.24 -10.66 c-0.04 -0.14 -0.28 -0.08 -0.24 0.06 l3.24 10.68 c0.06 0.28 0.4 0.26 0.5 0 l2.86 -7.72 l2.1 7.7 c0.08 0.3 0.44 0.3 0.5 0.02 l3.18 -10.68 c0.06 -0.14 -0.2 -0.22 -0.24 -0.06 l-3.16 10.66 l-2.92 -10.66 c-0.02 -0.14 -0.28 -0.1 -0.22 0.06 z M95.003 20 c-0.1 0 -0.16 -0.08 -0.16 -0.18 l0 -12.84 c0 -0.1 0.06 -0.18 0.16 -0.18 l2.28 0 c0.1 0 0.18 0.08 0.18 0.18 l0 12.84 c0 0.1 -0.08 0.18 -0.18 0.18 l-2.28 0 z M96.04299999999999 8 l0 10.78 c0 0.18 0.22 0.18 0.22 0 l0 -10.78 c0 -0.14 -0.22 -0.14 -0.22 0 z M107.73349999999999 17.5 l4.7 0 c0.1 0 0.18 0.08 0.18 0.18 l0 2.14 c0 0.1 -0.08 0.18 -0.18 0.18 l-7.72 0 c-0.08 0 -0.18 -0.04 -0.18 -0.18 l0 -2.22 s0 -0.02 0.02 -0.08 l4.82 -8.22 l-4.72 0 c-0.1 0 -0.18 -0.08 -0.18 -0.18 l0 -2.14 c0 -0.1 0.08 -0.18 0.18 -0.18 l7.78 0 c0.12 0 0.14 0.12 0.14 0.16 l0 2.24 c0 0.02 0 0.06 -0.02 0.08 z M105.7735 7.9 c-0.14 0 -0.12 0.26 0 0.26 l5.4 0 c0.14 0 0.16 0.04 0.1 0.14 l-5.76 10.06 c-0.1 0.2 0 0.52 0.3 0.52 l5.46 0 c0.16 0 0.16 -0.26 0 -0.26 l-5.46 0 c-0.08 0 -0.1 -0.06 -0.08 -0.14 l5.74 -10.08 c0.2 -0.34 0.04 -0.5 -0.2 -0.5 l-5.5 0 z M124.84400000000001 6.800000000000001 c1.36 0 2.38 0.38 3.06 1.12 c0.6 0.66 0.9 1.64 0.9 2.84 l0 5.3 c0 2.42 -1.4 3.94 -3.96 3.94 l-5 0 c-0.1 0 -0.16 -0.08 -0.16 -0.18 l0 -12.84 c0 -0.1 0.06 -0.18 0.16 -0.18 l5 0 z M126.184 15.46 l0 -4.1 c0 -1.26 -0.66 -2.06 -2.06 -2.06 l-1.8 0 l0 8.2 l1.8 0 c1.2 0 2.06 -0.78 2.06 -2.04 z M120.904 8.02 l0 10.76 c0 0.08 0.08 0.1 0.12 0.1 l3.26 0 c2.3 0 3.34 -1.38 3.34 -2.66 l0 -5.12 c0 -2.12 -1.12 -3.2 -3.4 -3.2 l-3.2 0 c-0.04 0 -0.12 0.02 -0.12 0.12 z M127.384 11.1 l0 5.12 c0 1.6 -1.6 2.44 -3.1 2.44 l-3.14 0 l0 -10.5 l3.08 0 c2.1 0 3.16 0.94 3.16 2.94 z M140.0145 6.619999999999999 c1.72 0 2.92 0.38 3.68 1.2 c0.6 0.66 0.88 1.6 0.88 2.94 l0 5.26 c0 1.38 -0.28 2.34 -0.88 2.98 c-0.78 0.8 -1.96 1.2 -3.68 1.2 c-1.78 0 -2.94 -0.4 -3.7 -1.2 c-0.58 -0.64 -0.9 -1.6 -0.9 -2.98 l0 -5.26 c0 -1.34 0.32 -2.28 0.9 -2.96 c0.78 -0.8 1.96 -1.18 3.7 -1.18 z M141.9145 15.42 l0 -4 c0 -1.76 -0.94 -2.12 -1.8 -2.12 l-0.24 0 c-1.28 0 -1.78 0.82 -1.78 2.12 l0 4 c0 1.76 0.94 2.14 1.78 2.14 l0.24 0 c1.28 0 1.78 -0.86 1.8 -2.14 z M136.6745 10.9 l0 4.96 c0 0.94 0.24 1.72 0.8 2.3 c0.52 0.52 1.32 0.8 2.3 0.8 l0.52 0 c1.88 0 3.1 -1.2 3.1 -3.1 l0 -4.96 c0 -2.04 -1.08 -3.14 -3.1 -3.14 l-0.52 0 c-2.04 0 -3.1 1.1 -3.1 3.14 z M140.2945 18.7 l-0.52 0 c-0.94 0 -1.64 -0.24 -2.14 -0.74 s-0.76 -1.2 -0.76 -2.1 l0 -4.96 c0 -1.9 1.02 -2.9 2.9 -2.9 l0.52 0 c1.9 0 2.84 0.98 2.84 2.9 l0 4.96 c0 0.84 -0.26 1.6 -0.8 2.12 c-0.52 0.44 -1.22 0.72 -2.04 0.72 z M162.48499999999999 6.800000000000001 c0.1 0 0.18 0.08 0.18 0.18 l0 12.84 c0 0.1 -0.08 0.18 -0.18 0.18 l-2.18 0 c-0.06 0 -0.16 -0.08 -0.16 -0.18 l0 -7.4 l-2.2 7.46 c-0.04 0.08 -0.08 0.12 -0.16 0.12 l-1.58 0 c-0.06 0 -0.14 -0.04 -0.16 -0.12 l-2.06 -7.6 l0 7.54 c0 0.1 -0.08 0.18 -0.18 0.18 l-2.22 0 c-0.08 0 -0.14 -0.08 -0.14 -0.18 l0 -12.84 c0 -0.1 0.06 -0.18 0.14 -0.18 l2.8 0 c0.08 0 0.16 0.06 0.18 0.12 l2.42 8.1 l2.66 -8.1 c0 -0.06 0.06 -0.12 0.14 -0.12 l2.7 0 z M161.245 18.78 c0 0.14 0.26 0.18 0.26 0 l0 -10.78 c0 -0.04 -0.06 -0.1 -0.12 -0.1 l-0.94 0 c-0.08 0 -0.1 0.06 -0.14 0.1 l-3.32 9.9 l-3.3 -9.92 c0 -0.06 -0.04 -0.08 -0.1 -0.08 l-0.98 0 c-0.06 0 -0.12 0.06 -0.12 0.12 l0 10.76 c0 0.14 0.26 0.18 0.26 0 l0 -10.62 l0.74 0 l3.38 10.16 c0.08 0.14 0.14 0.1 0.24 0 l3.4 -10.16 l0.74 0 l0 10.62 z"></path></g>
</svg>
